<svg width="34" height="29" viewBox="0 0 34 29" fill="none" xmlns="http://www.w3.org/2000/svg">
<path fill-rule="evenodd" clip-rule="evenodd" d="M30.5116 17.2477C30.0485 19.0135 29.1555 20.6522 27.8932 22.0107C25.5859 24.4095 22.4378 26.0055 18.9216 26.2834C18.5559 26.3131 18.1854 26.3273 17.8125 26.3273C17.157 26.3273 16.625 26.8593 16.625 27.5148C16.625 28.1703 17.157 28.7023 17.8125 28.7023C18.2495 28.7023 18.6817 28.6857 19.1092 28.6512C23.2263 28.3247 26.9135 26.4591 29.6127 23.6483C29.6174 23.6447 29.621 23.64 29.6258 23.6352C31.9544 21.1344 33.25 17.8426 33.25 14.425C33.25 14.3276 33.2405 14.2564 33.2251 14.2077C33.2417 14.0676 33.25 13.9251 33.25 13.7814C33.25 12.6639 33.25 11.3363 33.25 10.2189C33.25 8.25118 31.6552 6.65637 29.6875 6.65637H28.5321C29.2659 8.28799 29.6744 10.0966 29.6744 12.0001C29.6744 13.9037 29.2659 15.7122 28.5321 17.3439H29.6875C29.9713 17.3439 30.2468 17.3106 30.5116 17.2477ZM14.25 26.2501H12.4688C11.8132 26.2501 11.2812 26.7821 11.2812 27.4376C11.2812 28.0931 11.8132 28.6251 12.4688 28.6251H14.25C14.9055 28.6251 15.4375 28.0931 15.4375 27.4376C15.4375 26.7821 14.9055 26.2501 14.25 26.2501ZM16.625 0.138184C23.1717 0.138184 28.4869 5.45343 28.4869 12.0001C28.4869 18.5468 23.1717 23.8621 16.625 23.8621C10.0783 23.8621 4.76306 18.5468 4.76306 12.0001C4.76306 5.45343 10.0783 0.138184 16.625 0.138184ZM11.1055 17.0601C12.6267 18.3568 14.5445 19.1251 16.625 19.1251C18.7055 19.1251 20.6233 18.3568 22.1445 17.0601C22.6444 16.6349 22.7038 15.8856 22.2787 15.3869C21.8536 14.8869 21.1043 14.8276 20.6055 15.2527C19.5071 16.1872 18.126 16.7501 16.625 16.7501C15.124 16.7501 13.7429 16.1872 12.6445 15.2527C12.1457 14.8276 11.3964 14.8869 10.9713 15.3869C10.5462 15.8856 10.6056 16.6349 11.1055 17.0601ZM4.71794 6.65637H3.5625C1.59481 6.65637 0 8.25118 0 10.2189V13.7814C0 15.7491 1.59481 17.3439 3.5625 17.3439H4.71794C3.98406 15.7122 3.57556 13.9037 3.57556 12.0001C3.57556 10.0966 3.98406 8.28799 4.71794 6.65637Z" fill="#E8EFFF"/>
</svg>
