<svg width="36" height="31" viewBox="0 0 36 31" fill="none" xmlns="http://www.w3.org/2000/svg">
<path d="M30.653 14.9079L34.7763 14.8953C35.0054 14.8946 35.1279 15.1761 34.9853 15.3668L28.7831 23.7302C28.6762 23.8715 28.4686 23.8721 28.3608 23.7315L22.1073 15.4063C21.9636 15.2165 22.0916 14.9342 22.3135 14.9335L26.4296 14.9209C26.3104 8.73346 20.955 3.79543 14.5566 4.23793C9.06008 4.61424 4.61393 9.03968 4.27978 14.4533C3.92515 20.1911 8.10633 25.0552 13.6138 25.9122C14.638 26.0712 15.3851 26.9428 15.3883 27.9647C15.3922 29.2262 14.257 30.2093 12.9965 30.0158C5.13993 28.8136 -0.773317 21.7067 0.139077 13.4441C0.9053 6.53508 6.50047 0.971436 13.5133 0.167623C22.6872 -0.896538 30.5258 6.09881 30.653 14.9079Z" fill="#E8EFFF"/>
</svg>
