<svg width="36" height="23" viewBox="0 0 36 23" fill="none" xmlns="http://www.w3.org/2000/svg">
<path d="M32.4501 2.08459H29.2786C29.2921 1.7366 29.3233 1.39369 29.3233 1.0423C29.3233 0.466184 28.8571 0 28.281 0H1.0423C0.466184 0 0 0.466184 0 1.0423C0 7.25459 2.13587 13.0389 5.67475 16.7462H23.6485C24.2524 16.1136 24.7987 15.3342 25.3173 14.5921H26.1964C31.3692 14.5921 35.577 10.3843 35.577 5.21148C35.577 3.48724 34.1744 2.08459 32.4501 2.08459ZM26.6079 12.4659C27.8946 10.0188 28.7602 7.19455 29.1177 4.16918H32.4501C33.0252 4.16918 33.4924 4.63641 33.4924 5.21148C33.4924 9.09313 30.436 12.2476 26.6079 12.4659Z" fill="#E8EFFF" fill-opacity="0.7"/>
<path d="M26.7064 18.8308H2.61676C1.66862 18.8308 1.2148 19.9932 1.9007 20.6479C3.45956 22.1359 5.54123 23 7.78766 23H21.5355C23.782 23 25.8636 22.1359 27.4225 20.6479C28.1084 19.9932 27.6546 18.8308 26.7064 18.8308Z" fill="#E8EFFF" fill-opacity="0.7"/>
</svg>
