<svg width="34" height="31" viewBox="0 0 34 31" fill="none" xmlns="http://www.w3.org/2000/svg">
<path d="M24.9688 0C23.1238 0 21.4323 0.603814 19.9413 1.79471C18.5119 2.93643 17.5603 4.39061 17 5.44804C16.4397 4.39055 15.4881 2.93643 14.0587 1.79471C12.5677 0.603814 10.8762 0 9.03125 0C3.88264 0 0 4.3494 0 10.1171C0 16.3482 4.84387 20.6115 12.1768 27.0655C13.4221 28.1615 14.8336 29.4038 16.3006 30.7288C16.494 30.9037 16.7423 31 17 31C17.2577 31 17.506 30.9037 17.6994 30.7289C19.1666 29.4037 20.578 28.1614 21.8239 27.0648C29.1561 20.6115 34 16.3482 34 10.1171C34 4.3494 30.1174 0 24.9688 0Z" fill="#E8EFFF"/>
</svg>
