<svg width="105" height="110" viewBox="0 0 105 110" fill="none" xmlns="http://www.w3.org/2000/svg">
<g filter="url(#filter0_d_54_202)">
<path d="M76.3629 63.7616C75.7433 63.2069 75.0451 62.747 74.2908 62.3968C74.757 61.3076 74.9886 60.1325 74.9704 58.9478C74.9523 57.7632 74.6848 56.5957 74.1855 55.5213C73.6862 54.4469 72.9662 53.4897 72.0724 52.712C71.1786 51.9344 70.131 51.3537 68.9979 51.0078C69.1408 49.6895 68.9735 48.3561 68.5095 47.114C68.0454 45.8719 67.2974 44.7555 66.3252 43.8539C65.8515 43.4228 65.3297 43.0477 64.7703 42.7358L75.0625 31.5753C76.5455 29.9022 77.3132 27.7142 77.2008 25.4813C77.0884 23.2484 76.1048 21.1487 74.4612 19.633C72.8177 18.1173 70.6453 17.3066 68.4106 17.375C66.1759 17.4434 64.0571 18.3854 62.5094 19.9988L40.4899 43.8759C40.3056 40.8686 39.0546 38.0256 36.9618 35.8582C34.8689 33.6907 32.0715 32.3409 29.0725 32.0515C27.1737 31.858 25.2729 32.3986 23.76 33.5622C22.2471 34.7259 21.237 36.4244 20.9367 38.3092L17.6253 59.2291C16.9328 63.5765 17.3267 68.0277 18.7719 72.1859C20.2172 76.344 22.6688 80.08 25.9083 83.0607L30.2984 87.1093C34.1429 90.6597 38.9457 93.0025 44.1103 93.8466C49.2749 94.6907 54.5737 93.9989 59.3485 91.8572C62.4276 90.477 65.1921 88.4819 67.4721 85.9944L76.8511 75.8241C78.3835 74.1586 79.1927 71.9532 79.1011 69.6919C79.0096 67.4305 78.0249 65.2978 76.3629 63.7616Z" fill="#E8EFFF"/>
</g>
<defs>
<filter id="filter0_d_54_202" x="17.293" y="17.3711" width="86.8149" height="101.825" filterUnits="userSpaceOnUse" color-interpolation-filters="sRGB">
<feFlood flood-opacity="0" result="BackgroundImageFix"/>
<feColorMatrix in="SourceAlpha" type="matrix" values="0 0 0 0 0 0 0 0 0 0 0 0 0 0 0 0 0 0 127 0" result="hardAlpha"/>
<feOffset dx="15" dy="15"/>
<feGaussianBlur stdDeviation="5"/>
<feComposite in2="hardAlpha" operator="out"/>
<feColorMatrix type="matrix" values="0 0 0 0 0 0 0 0 0 0 0 0 0 0 0 0 0 0 0.25 0"/>
<feBlend mode="normal" in2="BackgroundImageFix" result="effect1_dropShadow_54_202"/>
<feBlend mode="normal" in="SourceGraphic" in2="effect1_dropShadow_54_202" result="shape"/>
</filter>
</defs>
</svg>
