<svg width="78" height="77" viewBox="0 0 78 77" fill="none" xmlns="http://www.w3.org/2000/svg">
<path d="M5.90601 71.2124C6.30957 74.4226 9.05592 76.9141 12.3728 76.9141H60.2625C63.5794 76.9141 66.3256 74.4226 66.7293 71.2124H5.90601ZM39.0587 74.9169H33.7397C33.288 74.9169 32.9218 74.5507 32.9218 74.0988C32.9218 73.6469 33.288 73.2807 33.7397 73.2807H39.0587C39.5104 73.2807 39.8766 73.6469 39.8766 74.0988C39.8766 74.5507 39.5104 74.9169 39.0587 74.9169Z" fill="#5A10ED"/>
<path d="M45.7144 40.5887C45.8879 40.1123 45.8652 39.597 45.6507 39.1375C45.2069 38.187 44.071 37.7747 43.1191 38.2181L41.6528 38.9009L42.1111 39.8821L42.6011 39.6538C43.0103 39.4627 43.4971 39.6402 43.6878 40.0501C43.8786 40.4597 43.7012 40.9464 43.2917 41.1371L42.8035 41.3644L43.2617 42.3458C44.1524 41.9309 45.3458 41.6024 45.7144 40.5887C45.888 40.1123 45.5408 41.066 45.7144 40.5887Z" fill="#5A10ED"/>
<path d="M42.5763 27.3763C40.395 25.0428 38.9693 24.3828 38.4475 24.3828C38.2414 24.3828 38.1724 24.5365 38.1092 24.7099C37.542 26.2689 38.4158 31.0617 41.013 37.3938L42.4288 36.7344C44.1975 35.9109 46.3077 36.6782 47.1329 38.4449C47.9497 40.1948 47.167 42.3323 45.4201 43.1455L44.0066 43.8037C45.499 46.6386 47.0668 49.1474 48.5511 51.0559C50.8646 54.0305 52.0376 54.31 52.2256 54.2246C52.2425 54.2168 52.3951 54.1354 52.5538 53.6997C53.4421 51.2584 52.4123 44.3648 49.1995 37.4851C47.3804 33.5898 45.0282 29.9997 42.5763 27.3763C45.0282 29.9997 40.395 25.0429 42.5763 27.3763Z" fill="#5A10ED"/>
<path d="M26.595 43.4831C25.8454 43.8874 25.0613 44.228 24.2896 44.5872C24.8578 47.2775 26.0397 49.8085 27.7386 51.9725C28.869 51.4461 29.9849 50.9042 31.1741 50.5205C29.4463 48.2638 28.2325 45.664 27.6123 42.8918C27.2818 43.099 26.9395 43.2976 26.595 43.4831C26.664 43.446 26.5167 43.5254 26.595 43.4831C26.664 43.446 25.8454 43.8874 26.595 43.4831ZM29.7735 49.3489C29.964 49.7585 29.7867 50.2452 29.3771 50.4361L28.4991 50.845C27.5828 51.2711 26.831 49.8169 27.8087 49.3614L28.6868 48.9524C29.0957 48.7622 29.5826 48.939 29.7735 49.3489C29.964 49.7583 29.5826 48.939 29.7735 49.3489ZM28.4676 47.1301C28.6582 47.5399 28.4807 48.0264 28.0713 48.2173L27.1934 48.6261C26.2771 49.0522 25.5254 47.5981 26.5031 47.1425L27.3809 46.7337C27.7902 46.5429 28.277 46.7206 28.4676 47.1301C28.6582 47.5399 28.277 46.7206 28.4676 47.1301ZM27.1494 45.9542L26.2716 46.363C25.3552 46.7891 24.6035 45.335 25.5812 44.8794L26.459 44.4706C26.8683 44.2805 27.3551 44.4573 27.5459 44.8671C27.7363 45.2768 27.5589 45.7633 27.1494 45.9542Z" fill="#5A10ED"/>
<path d="M22.7731 45.2935L22.4931 45.4238C20.4813 46.3605 19.5775 48.8208 20.5192 50.8374C21.4701 52.874 23.9038 53.7586 25.9438 52.8083L26.2214 52.6789C24.5684 50.4867 23.392 47.9672 22.7731 45.2935Z" fill="#5A10ED"/>
<path d="M40.9515 41.326C38.8682 36.8645 37.3896 32.61 36.7191 29.3354L35.4042 33.7154C34.4798 36.7944 31.8504 39.7939 29.0771 41.8806C29.6335 44.8863 30.9438 47.6921 32.8924 50.05C36.2757 49.2696 40.2672 49.1859 43.2231 50.4582L47.4259 52.2666C45.3457 49.6494 43.0339 45.7853 40.9515 41.326C43.0339 45.7853 38.8682 36.8645 40.9515 41.326Z" fill="#5A10ED"/>
<path d="M68.8897 49.3394C65.5916 49.3394 62.9084 52.0275 62.9084 55.3315C62.9084 58.6356 65.5916 61.3237 68.8897 61.3237C72.1879 61.3237 74.871 58.6356 74.871 55.3315C74.871 52.0275 72.1879 49.3394 68.8897 49.3394ZM69.3399 58.2004V59.1973H68.3384V58.2553C67.8674 58.2101 67.3437 58.0674 66.9835 57.7452L67.3438 56.743C67.7695 57.026 68.197 57.2379 68.7239 57.2379C69.2216 57.2379 69.5569 56.9784 69.5569 56.5923C69.5569 56.3336 69.4543 56.0522 68.6977 55.7464C67.8737 55.4242 67.1125 54.9921 67.1125 54.0265C67.1125 53.2437 67.6709 52.6354 68.4498 52.4357V51.5073H69.4512V52.3744C69.8596 52.4202 70.2741 52.5501 70.6108 52.7904L70.236 53.7766C69.8461 53.5545 69.4781 53.381 69.0135 53.381C68.4842 53.381 68.2955 53.66 68.2955 53.921C68.2955 54.2025 68.434 54.3851 69.2548 54.7235C69.9522 55.0072 70.7429 55.4695 70.7429 56.531C70.7427 57.3399 70.2299 57.9919 69.3399 58.2004Z" fill="#5A10ED"/>
<path d="M37.3941 0.828369C33.645 0.828369 30.595 3.88346 30.595 7.6388C30.595 11.394 33.6451 14.4491 37.3941 14.4491C41.1433 14.4491 44.1933 11.394 44.1933 7.6388C44.1933 3.8833 41.1433 0.828369 37.3941 0.828369ZM37.8442 10.5076V11.5047H36.8428V10.5626C36.358 10.5158 35.867 10.3646 35.4878 10.0525L35.8481 9.05028C36.2727 9.33276 36.7034 9.54512 37.2283 9.54512C37.7259 9.54512 38.0612 9.28566 38.0612 8.8997C38.0612 8.641 37.9586 8.3596 37.202 8.0538C36.378 7.73147 35.6168 7.29933 35.6168 6.33389C35.6168 5.55116 36.1752 4.9428 36.9541 4.7431V3.81457H37.9555V4.68179C38.3732 4.72858 38.7655 4.8665 39.1151 5.09786L38.7403 6.084C38.3506 5.86175 37.9809 5.68831 37.5178 5.68831C36.9886 5.68831 36.7998 5.96724 36.7998 6.2284C36.7998 6.5098 36.9384 6.69251 37.7589 7.0309C38.4564 7.31462 39.247 7.77688 39.247 8.83838C39.2472 9.64721 38.7344 10.2991 37.8442 10.5076Z" fill="#5A10ED"/>
<path d="M39.7225 62.7206L32.4323 51.8535C31.1225 52.214 29.9159 52.7638 28.687 53.336L35.1842 64.8336L39.7225 62.7206ZM36.0502 60.538C36.5393 60.3102 37.121 60.5215 37.3491 61.0101C37.5772 61.4986 37.3656 62.0794 36.8763 62.3072C36.3872 62.535 35.8056 62.3235 35.5774 61.835C35.3493 61.3465 35.5609 60.7658 36.0502 60.538Z" fill="#5A10ED"/>
<path d="M51.9078 39.6604C53.3645 43.4042 54.1595 46.8821 54.4026 49.62C54.5553 51.2932 54.5556 53.2388 53.9884 54.5137C53.9871 54.5165 53.9859 54.5195 53.9846 54.5222C53.9138 54.6805 53.4011 56.4511 51.0741 55.6174L42.5768 51.9614C40.2563 50.9629 37.0426 50.9264 34.1402 51.4627L41.6137 62.603C41.8894 63.014 41.7275 63.5919 41.2798 63.8007L35.1897 66.6365C34.8079 66.8141 34.3396 66.664 34.1325 66.2972L27.1999 54.0288L26.6343 54.2921C23.7776 55.622 20.3697 54.3835 19.0372 51.5302C17.7179 48.705 18.9831 45.2536 21.8028 43.9404L25.1134 42.3989C26.6062 41.7039 27.9774 40.736 29.2185 39.6606H17.6399C17.6654 42.5166 16.2544 45.2879 13.9438 46.97L13.9749 69.5762H58.7033V39.6604H51.9078Z" fill="#5A10ED"/>
<path d="M30.9028 38.0242C31.7762 37.0702 32.5446 36.0362 33.112 34.9714H16.2839C16.8684 35.9072 17.2721 36.9409 17.4792 38.0242H30.9028Z" fill="#5A10ED"/>
<path d="M12.309 47.9136C11.4095 48.3151 10.4329 48.5738 9.40758 48.6589L9.40649 69.5761H12.3388L12.309 47.9136Z" fill="#5A10ED"/>
<path d="M63.2289 36.4189C63.2289 35.6207 62.579 34.9714 61.7804 34.9714H49.782C50.0957 35.5733 50.3967 36.1824 50.6816 36.7927C50.8742 37.2052 51.0574 37.6155 51.2344 38.0242H59.5209C59.9726 38.0242 60.3388 38.3904 60.3388 38.8423V69.5761H63.2272L63.2277 60.4281C61.9645 59.0239 61.2729 57.227 61.2729 55.3314C61.2729 53.4353 61.9648 51.6384 63.2282 50.2342L63.2289 36.4189Z" fill="#5A10ED"/>
<path d="M11.6756 39.8445C11.2061 39.8445 10.9924 40.5664 10.9924 41.2373C10.9876 41.655 11.0713 42.6183 11.6756 42.6183C12.2821 42.6183 12.3476 41.6365 12.3476 41.2144C12.3476 40.8025 12.2821 39.8445 11.6756 39.8445Z" fill="#5A10ED"/>
<path d="M5.65335 36.7642C5.12283 36.7642 4.98151 37.6396 4.98151 38.1568C4.97178 38.5727 5.04283 39.5378 5.65335 39.5378C6.25908 39.5378 6.32457 38.556 6.32457 38.1339C6.32457 37.6226 6.23731 36.7642 5.65335 36.7642Z" fill="#5A10ED"/>
<path d="M8.65851 32.3748C4.60833 32.3748 1.31323 35.6674 1.31323 39.7143C1.31323 43.7613 4.60833 47.0537 8.65851 47.0537C12.7087 47.0537 16.0038 43.7613 16.0038 39.7143C16.0038 35.6674 12.7087 32.3748 8.65851 32.3748ZM3.59733 38.1935C3.59733 36.6518 4.45697 35.576 5.68806 35.576C6.93459 35.576 7.70898 36.5386 7.70898 38.0882C7.70898 39.9108 6.66493 40.7267 5.6303 40.7267C4.62856 40.7266 3.61154 39.9432 3.59733 38.1935ZM6.9542 43.8524H5.64296L10.3515 35.5758H11.6628L6.9542 43.8524ZM11.6523 43.8068C10.6502 43.8068 9.63337 43.0272 9.62024 41.285C9.62024 39.4686 10.6699 38.6561 11.71 38.6561C12.9495 38.6561 13.7195 39.6189 13.7195 41.1687C13.7197 42.9912 12.6814 43.8068 11.6523 43.8068Z" fill="#5A10ED"/>
<path d="M66.6573 6.39673L62.3545 8.67202L66.6573 10.9472V6.39673Z" fill="#5A10ED"/>
<path d="M77.2232 15.3369V2.04224H52.1899L52.1831 15.3368L77.2232 15.3369ZM60.932 7.57355L66.4718 4.64434C67.2857 4.21359 68.2936 4.82627 68.2936 5.74291V11.6013C68.2936 12.5174 67.2857 13.1305 66.4718 12.6998L60.9321 9.77054C60.0671 9.31338 60.0655 8.03195 60.932 7.57355Z" fill="#5A10ED"/>
<path d="M52.1819 16.9729L52.1794 21.8983H77.2228V16.9729H52.1819ZM55.9201 20.237H54.2601C53.8084 20.237 53.4422 19.8708 53.4422 19.4189C53.4422 18.9669 53.8084 18.6008 54.2601 18.6008H55.9201C56.3719 18.6008 56.7381 18.9669 56.7381 19.4189C56.7381 19.8708 56.3719 20.237 55.9201 20.237ZM70.558 20.237H63.7599C63.5011 20.6082 63.0717 20.8516 62.5849 20.8516C62.0981 20.8516 61.6687 20.6082 61.4099 20.237H58.8112C58.3594 20.237 57.9932 19.8708 57.9932 19.4189C57.9932 18.9669 58.3594 18.6008 58.8112 18.6008H61.41C61.6689 18.2296 62.0982 17.9861 62.5849 17.9861C63.0717 17.9861 63.5011 18.2295 63.7598 18.6008H70.558C71.0098 18.6008 71.3759 18.9669 71.3759 19.4189C71.3759 19.8708 71.0099 20.237 70.558 20.237ZM75.1795 20.237H75.1664V20.2501C75.1664 20.702 74.8002 21.0682 74.3484 21.0682C73.8967 21.0682 73.5305 20.702 73.5305 20.2501V20.237H73.5172C73.0654 20.237 72.6992 19.8708 72.6992 19.4189C72.6992 18.9669 73.0654 18.6008 73.5172 18.6008H73.5305V18.5878C73.5305 18.1359 73.8967 17.7697 74.3484 17.7697C74.8002 17.7697 75.1664 18.1359 75.1664 18.5878V18.6008H75.1795C75.6312 18.6008 75.9974 18.9669 75.9974 19.4189C75.9974 19.8708 75.6312 20.237 75.1795 20.237Z" fill="#5A10ED"/>
<path d="M6.07364 24.8054C7.51987 25.4102 9.04842 25.7166 10.6235 25.7166H20.8365C21.5838 25.7166 22.1917 25.109 22.1917 24.3619C22.1917 23.6081 21.5781 22.9949 20.824 22.9949H18.5093C18.1134 22.9949 17.8476 22.6457 17.8929 22.2678C17.9326 21.9353 18.1913 21.7656 18.5054 21.7229H21.9551C22.7023 21.7229 23.3102 21.1153 23.3102 20.3683C23.3102 19.6144 22.6966 19.0011 21.9425 19.0011H19.2C18.4158 19.0011 18.4165 17.7293 19.1929 17.7293H23.0736C23.821 17.7293 24.4289 17.1215 24.4289 16.3745C24.4289 15.6208 23.8153 15.0076 23.0611 15.0076H19.442C19.0943 15.0076 18.8125 14.7258 18.8125 14.378C18.8125 14.0303 19.0943 13.7355 19.442 13.7355H24.1921C24.9393 13.7355 25.5472 13.1279 25.5472 12.381C25.5497 11.6364 24.9308 11.014 24.1858 11.014L13.9046 10.9934C13.1018 10.9934 12.499 10.1194 12.7994 9.36465C13.1621 8.44277 13.6228 7.09909 13.7658 6.44594C14.2276 4.33405 13.5312 1.94926 11.8987 0C11.1025 3.20135 10.1215 5.82152 8.97814 7.79734C8.24715 9.06071 7.24681 10.2093 6.07349 11.1357L6.07364 24.8054Z" fill="#5A10ED"/>
<path d="M0 10.8589V25.3009H4.80913V10.8589H0ZM2.40456 22.9921C1.78678 22.9921 1.28607 22.4914 1.28607 21.8739C1.28607 21.2563 1.78694 20.7558 2.40456 20.7558C3.02219 20.7558 3.52306 21.2565 3.52306 21.8739C3.52306 22.4914 3.02235 22.9921 2.40456 22.9921Z" fill="#5A10ED"/>
</svg>
