<svg width="72" height="72" viewBox="0 0 72 72" fill="none" xmlns="http://www.w3.org/2000/svg">
<path d="M36 -1.36852e-05C43.1201 -1.39964e-05 50.0803 2.11135 56.0005 6.06708C61.9207 10.0228 66.5349 15.6452 69.2596 22.2234C71.9844 28.8015 72.6973 36.0399 71.3083 43.0232C69.9192 50.0065 66.4905 56.4211 61.4558 61.4558C56.4211 66.4905 50.0065 69.9192 43.0232 71.3083C36.0399 72.6973 28.8015 71.9844 22.2234 69.2596C15.6452 66.5349 10.0228 61.9207 6.06708 56.0005C2.11135 50.0803 -1.65212e-05 43.1201 -1.68324e-05 36C0.0103053 26.4554 3.80646 17.3046 10.5555 10.5555C17.3046 3.80647 26.4554 0.0103093 36 -1.36852e-05ZM36 48C38.196 48.0022 40.3167 47.1996 41.961 45.744C42.942 44.871 43.872 44.022 44.481 43.413L53.1 34.941C53.6304 34.3764 53.9219 33.6285 53.9133 32.8539C53.9048 32.0792 53.597 31.3379 53.0543 30.7851C52.5116 30.2324 51.776 29.9109 51.0017 29.8882C50.2274 29.8654 49.4742 30.143 48.9 30.663L40.26 39.15C39.696 39.711 38.856 40.473 37.983 41.25C37.4349 41.7334 36.7293 42.0001 35.9985 42.0001C35.2677 42.0001 34.562 41.7334 34.014 41.25C33.144 40.476 32.304 39.714 31.758 39.171L23.1 30.663C22.5257 30.143 21.7726 29.8654 20.9983 29.8882C20.2239 29.9109 19.4884 30.2324 18.9457 30.7852C18.403 31.3379 18.0951 32.0792 18.0866 32.8539C18.0781 33.6285 18.3696 34.3764 18.9 34.941L27.534 43.428C28.134 44.028 29.055 44.868 30.033 45.735C31.677 47.196 33.8006 48.0021 36 48Z" fill="#5A10ED"/>
</svg>
